<?xml version="1.0" encoding="utf-8"?>
<!-- Generator: Adobe Illustrator 21.1.0, SVG Export Plug-In . SVG Version: 6.00 Build 0)  -->
<svg version="1.1" id="Layer_1" xmlns="http://www.w3.org/2000/svg" xmlns:xlink="http://www.w3.org/1999/xlink" x="0px" y="0px"
	 viewBox="0 0 31.9 32" style="enable-background:new 0 0 31.9 32;" xml:space="preserve">
<style type="text/css">
	.st0{fill:#E82126;}
</style>
<path class="st0" d="M31.8,12.7c-0.2-0.9-1-1.6-1.8-1.4c-0.6,0.1-1,0.6-1.1,1.2l-4,0.8c-0.2-0.7-0.5-1.4-0.9-2l1-0.7
	c0.5,0.4,1.2,0.4,1.7,0.1c0.7-0.5,0.8-1.5,0.2-2.2c-0.5-0.8-1.5-1-2.2-0.6c-0.5,0.3-0.7,1-0.5,1.6l-1,0.7c-0.5-0.6-1-1.1-1.6-1.6
	l2.2-3.5C24.4,5.2,25,5,25.3,4.5c0.4-0.7,0.1-1.6-0.7-2.1c-0.8-0.5-1.8-0.4-2.2,0.3c-0.3,0.5-0.2,1.1,0.1,1.7l-2.2,3.5
	c-0.7-0.4-1.4-0.6-2.1-0.8l0.2-1c0.6-0.1,1.1-0.6,1.2-1.1c0.1-0.8-0.5-1.6-1.4-1.7c-0.9-0.2-1.8,0.4-1.9,1.1
	c-0.1,0.6,0.2,1.2,0.8,1.5l-0.2,1.1c-0.6-0.1-1.3,0-1.9,0l-0.9-4.1c0.5-0.3,0.8-0.9,0.7-1.5c-0.2-0.8-1-1.3-2-1.1
	c-0.9,0.2-1.5,1-1.4,1.8c0.1,0.6,0.6,1,1.3,1.1l0.9,4.1c-0.8,0.2-1.5,0.6-2.2,1l-0.6-0.9c0.3-0.5,0.4-1.2,0-1.7
	C10.3,5,9.3,4.9,8.5,5.4C7.7,6,7.5,7,8,7.6c0.3,0.5,1,0.7,1.6,0.5L10.2,9c-0.5,0.4-1,1-1.4,1.5L5.1,8.2C5.2,7.5,5,6.9,4.5,6.6
	C3.8,6.2,2.9,6.5,2.4,7.3C1.9,8.1,2,9.1,2.7,9.5c0.5,0.3,1.1,0.2,1.7-0.1L8,11.7c-0.3,0.6-0.6,1.2-0.8,1.9l-1-0.2
	c-0.1-0.6-0.5-1.1-1.1-1.2c-0.8-0.1-1.6,0.5-1.7,1.4c-0.2,0.9,0.3,1.8,1.1,1.9c0.6,0.1,1.2-0.2,1.5-0.8L7,15c-0.1,0.7-0.1,1.3,0,2
	c0,0,0,0,0,0l-4.3,0.9c-0.3-0.5-0.9-0.8-1.5-0.7c-0.8,0.2-1.3,1-1.1,2c0.2,0.9,1,1.6,1.8,1.4c0.6-0.1,1-0.6,1.1-1.2l4.3-0.9
	c0.2,0.8,0.5,1.5,0.9,2.2l-0.7,0.5c-0.5-0.4-1.2-0.4-1.7-0.1c-0.7,0.5-0.8,1.5-0.2,2.2C6,24,7,24.3,7.7,23.8c0.5-0.3,0.7-1,0.5-1.6
	l0.7-0.5c0.5,0.6,1.1,1.2,1.7,1.7l-2.3,3.7c-0.6-0.1-1.2,0.1-1.6,0.6c-0.4,0.7-0.1,1.6,0.7,2.1s1.8,0.4,2.2-0.3
	c0.3-0.5,0.2-1.1-0.1-1.7l2.3-3.7c0.6,0.3,1.2,0.5,1.8,0.7l-0.2,1c-0.6,0.1-1.1,0.6-1.2,1.1c-0.1,0.8,0.5,1.6,1.4,1.7
	c0.9,0.2,1.8-0.4,1.9-1.1c0.1-0.6-0.2-1.2-0.8-1.5l0.2-1c0.7,0.1,1.4,0.1,2.1,0l0.9,4.1c-0.5,0.3-0.8,0.9-0.7,1.5
	c0.2,0.8,1,1.3,2,1.1c0.9-0.2,1.5-1,1.4-1.8c-0.1-0.6-0.6-1-1.3-1.1l-0.9-4.1c0.8-0.2,1.5-0.5,2.2-0.9l0.6,0.8
	c-0.3,0.5-0.4,1.2,0,1.7c0.5,0.7,1.5,0.7,2.2,0.2c0.8-0.6,1-1.5,0.5-2.2c-0.3-0.5-1-0.7-1.6-0.5L22,23.1c0.6-0.5,1.1-1,1.5-1.6
	l3.5,2.2c-0.1,0.6,0.1,1.2,0.6,1.6c0.7,0.4,1.6,0.1,2.2-0.7c0.5-0.8,0.4-1.8-0.3-2.2c-0.5-0.3-1.1-0.2-1.7,0.1l-3.5-2.2
	c0.3-0.6,0.6-1.3,0.7-1.9l1.1,0.2c0.1,0.6,0.5,1.1,1.1,1.2c0.8,0.1,1.6-0.5,1.7-1.4c0.2-0.9-0.3-1.8-1.1-1.9
	c-0.6-0.1-1.2,0.2-1.5,0.8l-1.1-0.2c0.1-0.7,0.1-1.4,0-2.2l4-0.8c0.3,0.5,0.9,0.8,1.5,0.7C31.5,14.5,32,13.6,31.8,12.7z M24.6,8.4
	c0.3-0.5,1.1-0.5,1.7-0.2c0.1,0.1,0.2,0.2,0.3,0.3c0.4,0.4,0.5,0.9,0.3,1.3c-0.3,0.5-1.1,0.5-1.7,0.2c-0.1-0.1-0.2-0.2-0.3-0.3
	C24.5,9.3,24.4,8.8,24.6,8.4z M22.4,3.2c0.1-0.6,0.8-0.9,1.5-0.7c0.1,0,0.3,0.1,0.4,0.1c0.5,0.2,0.8,0.7,0.7,1.2
	c-0.1,0.6-0.8,0.9-1.5,0.7c-0.1,0-0.3-0.1-0.4-0.1C22.6,4.1,22.3,3.6,22.4,3.2z M4.2,8.6C4.1,8.7,4,8.7,3.9,8.8
	c-0.5,0.3-1,0.3-1.4,0C2.1,8.4,2.2,7.7,2.7,7.2C2.8,7.1,2.9,7,3,6.9c0.5-0.3,1-0.3,1.4,0C4.8,7.3,4.7,8,4.2,8.6z M5.6,14.2
	c-0.1,0.1-0.1,0.2-0.2,0.3C5,15,4.5,15.2,4.1,15c-0.5-0.2-0.7-1-0.4-1.6c0.1-0.1,0.1-0.2,0.2-0.3c0.3-0.4,0.9-0.7,1.3-0.5
	C5.7,12.8,5.9,13.5,5.6,14.2z M2.2,20.1c-0.5,0.3-1.2,0.1-1.6-0.5c-0.1-0.1-0.1-0.2-0.2-0.4c-0.2-0.5-0.1-1.1,0.3-1.3
	c0.5-0.3,1.2-0.1,1.6,0.5c0.1,0.1,0.1,0.2,0.2,0.4C2.7,19.2,2.6,19.8,2.2,20.1z M7.3,23.6c-0.5,0.3-1.2,0.1-1.6-0.5
	c-0.1-0.1-0.1-0.2-0.2-0.4c-0.2-0.5-0.1-1.1,0.3-1.3c0.5-0.3,1.2-0.1,1.6,0.5c0.1,0.1,0.1,0.2,0.2,0.4C7.7,22.8,7.7,23.3,7.3,23.6z
	 M10.1,16c-0.2,0.7-0.7,1.1-1.3,1c-0.5-0.1-0.8-0.8-0.6-1.4s0.7-1.1,1.3-1C10,14.7,10.3,15.4,10.1,16z M9.8,7.3
	C9.6,7.4,9.5,7.4,9.4,7.4C8.8,7.6,8.3,7.4,8.1,7C7.9,6.5,8.2,5.8,8.8,5.5C9,5.4,9.1,5.4,9.2,5.3c0.5-0.1,1.1,0.1,1.3,0.5
	C10.8,6.3,10.4,7,9.8,7.3z M9.7,28.7c0.1,0.6-0.5,1.1-1.2,1.2c-0.1,0-0.3,0-0.4,0c-0.6-0.1-1-0.4-1-0.9c-0.1-0.6,0.5-1.1,1.2-1.2
	c0.1,0,0.3,0,0.4,0C9.2,27.9,9.6,28.3,9.7,28.7z M14.8,15.7c0.2,0.5-0.1,1.1-0.7,1.3c-0.6,0.3-1.2,0.1-1.4-0.3
	c-0.2-0.5,0.1-1.1,0.7-1.3C14,15,14.6,15.2,14.8,15.7z M13.3,2.4c-0.1,0.1-0.3,0.1-0.4,0.1c-0.5,0.1-1.1-0.1-1.3-0.5
	c-0.3-0.5,0.1-1.2,0.7-1.5c0.1-0.1,0.3-0.1,0.4-0.1c0.5-0.1,1.1,0.1,1.3,0.5C14.3,1.4,14,2.1,13.3,2.4z M11.3,11.5
	c-0.3-0.6,0.1-1.4,0.9-1.8c0.8-0.4,1.6-0.2,1.9,0.5c0.3,0.6-0.1,1.4-0.9,1.8c-0.1,0.1-0.3,0.1-0.4,0.1C12.1,12.2,11.5,12,11.3,11.5z
	 M12.3,22.5c-0.7-0.4-1-1.1-0.7-1.7c0.3-0.6,1.1-0.7,1.8-0.3c0.7,0.4,1,1.1,0.7,1.7C13.8,22.7,13,22.9,12.3,22.5z M15.5,27.4
	c0.1,0.6-0.5,1.1-1.2,1.2c-0.1,0-0.3,0-0.4,0c-0.6-0.1-1-0.4-1-0.9c-0.1-0.6,0.5-1.1,1.2-1.2c0.1,0,0.3,0,0.4,0
	C15,26.6,15.5,27,15.5,27.4z M15.6,19.7c-0.5,0.1-1-0.2-1.1-0.5s0.4-0.7,0.9-0.7s1,0.2,1.1,0.5C16.6,19.3,16.1,19.6,15.6,19.7z
	 M16.7,4.2c0.1-0.6,0.8-0.9,1.5-0.7c0.1,0,0.3,0.1,0.4,0.1c0.5,0.2,0.8,0.7,0.7,1.2c-0.1,0.6-0.8,0.9-1.5,0.7
	c-0.1,0-0.3-0.1-0.4-0.1C16.9,5.1,16.6,4.6,16.7,4.2z M17.3,10.3c0.3-0.4,1-0.4,1.5,0c0.2,0.2,0.4,0.5,0.4,0.7
	c0.1,0.3,0,0.5-0.2,0.7c-0.1,0.1-0.3,0.2-0.4,0.3c-0.1,0-0.2,0-0.2,0c-0.3,0-0.5-0.1-0.8-0.3C17.1,11.3,17,10.7,17.3,10.3z
	 M17.6,17.8c-0.2-0.8,0.2-1.6,0.9-1.8c0.7-0.1,1.3,0.4,1.5,1.3c0.2,0.8-0.2,1.6-0.9,1.8C18.5,19.2,17.8,18.6,17.6,17.8z M19,29.6
	c0.1,0,0.3,0,0.4,0c0.6,0.1,1,0.4,1,0.9c0.1,0.6-0.5,1.1-1.2,1.2c-0.1,0-0.3,0-0.4,0c-0.6-0.1-1-0.4-1-0.9
	C17.7,30.2,18.3,29.7,19,29.6z M19.9,23.1c-0.5,0.2-1.1,0.1-1.3-0.3c-0.2-0.4,0.1-0.9,0.6-1.2c0.5-0.2,1.1-0.1,1.3,0.3
	C20.7,22.3,20.4,22.8,19.9,23.1z M20.4,9.4c-0.5,0.1-1-0.2-1.1-0.5c0-0.3,0.4-0.7,0.9-0.7c0.5-0.1,1,0.2,1.1,0.5
	C21.3,9,20.9,9.3,20.4,9.4z M22,24.9c0.1-0.1,0.2-0.2,0.3-0.3c0.5-0.3,1-0.4,1.4-0.1c0.4,0.4,0.4,1.1-0.1,1.7
	c-0.1,0.1-0.2,0.2-0.3,0.3c-0.5,0.3-1,0.4-1.4,0.1C21.5,26.2,21.6,25.5,22,24.9z M23,16c-0.6,0.1-1.2-0.4-1.4-1.2
	c-0.2-0.8,0.2-1.5,0.8-1.6c0.6-0.1,1.2,0.4,1.4,1.2C24,15.2,23.6,15.9,23,16z M27.9,23.4c0.1-0.1,0.2-0.2,0.3-0.3
	c0.4-0.3,1-0.4,1.3-0.1c0.5,0.3,0.5,1.1,0,1.7c-0.1,0.1-0.2,0.2-0.3,0.3c-0.4,0.3-1,0.4-1.3,0.1C27.4,24.7,27.4,24,27.9,23.4z
	 M27.3,16.6c0.6-0.1,1.1,0.3,1.3,1.1c0,0.1,0,0.3,0,0.4c0,0.6-0.3,1-0.7,1.1c-0.6,0.1-1.1-0.3-1.3-1.1c0-0.1,0-0.3,0-0.4
	C26.6,17.2,26.9,16.8,27.3,16.6z M30.9,14.2c-0.6,0.1-1.1-0.3-1.3-1.1c0-0.1,0-0.3,0-0.4c0-0.6,0.3-1,0.7-1.1
	c0.6-0.1,1.1,0.3,1.3,1.1c0,0.1,0,0.3,0,0.4C31.6,13.7,31.3,14.1,30.9,14.2z"/>
</svg>
